<svg data-v-423bf9ae="" xmlns="http://www.w3.org/2000/svg" viewBox="0 0 203 90" class="iconLeft"><!----><!----><!----><g data-v-423bf9ae="" id="6ceb2eeb-dfeb-47c4-89cf-9d3a6b526797" fill="#1abc9c" transform="matrix(5.405405219639779,0,0,5.405405219639779,115.06673979225138,17.27026938839147)"><path d="M8.74 4.76L8.74 5.32L8.74 5.32Q8.74 8.13 7.67 9.32L7.67 9.32L7.67 9.32Q6.59 10.50 4.13 10.50L4.13 10.50L0.78 10.50L0.78-0.42L4.13-0.42L4.13-0.42Q6.59-0.42 7.67 0.76L7.67 0.76L7.67 0.76Q8.74 1.95 8.74 4.76L8.74 4.76ZM3.05 1.54L3.05 8.54L4.00 8.54L4.00 8.54Q5.38 8.54 5.90 7.78L5.90 7.78L5.90 7.78Q6.43 7.03 6.43 5.32L6.43 5.32L6.43 4.76L6.43 4.76Q6.43 3.05 5.90 2.30L5.90 2.30L5.90 2.30Q5.38 1.54 4.00 1.54L4.00 1.54L3.05 1.54ZM13.82 6.89L13.82-0.42L16.09-0.42L16.09 7.17L16.09 7.17Q16.09 10.68 12.84 10.68L12.84 10.68L12.84 10.68Q11.10 10.68 10.35 9.79L10.35 9.79L10.35 9.79Q9.60 8.90 9.60 7.14L9.60 7.14L9.60 6.78L11.75 6.78L11.75 6.78Q11.75 7.78 11.98 8.25L11.98 8.25L11.98 8.25Q12.21 8.72 12.78 8.72L12.78 8.72L12.78 8.72Q13.37 8.72 13.59 8.27L13.59 8.27L13.59 8.27Q13.82 7.83 13.82 6.89L13.82 6.89Z"></path></g><!----><g data-v-423bf9ae="" id="78811e00-678d-4e57-9a17-81b494595831" transform="matrix(3.1025924503236535,0,0,3.1025924503236535,0.3585207948215441,-8.290956827928717)" stroke="none" fill="#20484F"><path d="M16 26.219l7.496-12.954H8.504zM7.496 19.046L0 32h14.992zM17.008 32H32l-7.496-12.954zM3.587 2.992L0 9.191h7.174zM8.275 9.191h7.174l-3.587-6.199zM20.138 2.992l-3.587 6.199h7.174zM24.826 9.191H32l-3.587-6.199z"></path></g><!----></svg>